<?xml version="1.0" encoding="iso-8859-1"?>
<!-- Generator: Adobe Illustrator 22.1.0, SVG Export Plug-In . SVG Version: 6.00 Build 0)  -->
<svg xmlns="http://www.w3.org/2000/svg" xmlns:xlink="http://www.w3.org/1999/xlink" version="1.1" id="Layer_3" x="0px" y="0px" viewBox="0 0 64 64" style="enable-background:new 0 0 64 64;" xml:space="preserve" width="512" height="512">
<g>
	<path d="M56,2.378V2c0-0.303-0.138-0.59-0.374-0.78c-0.236-0.19-0.547-0.262-0.843-0.196l-0.756,0.168   c-5.195,1.155-9.95,3.669-13.843,7.269C37.684,6.885,34.915,6,32,6s-5.684,0.885-8.184,2.461c-3.894-3.6-8.648-6.115-13.843-7.269   L9.217,1.024C8.92,0.958,8.61,1.03,8.374,1.22C8.138,1.41,8,1.697,8,2v0.378c0,5.767,2.489,11.253,6.83,15.051l0.735,0.643   C13.32,22.598,12,28.086,12,34c0,5.444,1.087,10.742,3.232,15.747L17.483,55H15c-3.86,0-7,3.14-7,7c0,0.552,0.448,1,1,1h4.169   c3.996,0,7.918-1.086,11.346-3.143C24.816,59.677,25,59.351,25,59v-5c0-2.757,3.14-5,7-5s7,2.243,7,5v5   c0,0.351,0.184,0.677,0.485,0.857C42.913,61.914,46.835,63,50.831,63H55c0.552,0,1-0.448,1-1c0-3.86-3.14-7-7-7h-2.483l2.251-5.253   C50.913,44.742,52,39.444,52,34c0-5.914-1.32-11.402-3.564-15.927l0.735-0.643C53.511,13.632,56,8.146,56,2.378z M53.103,7.922   L44.928,7.24c2.746-1.846,5.802-3.203,9.051-3.985C53.9,4.857,53.59,6.421,53.103,7.922z M19.072,7.24l-8.175,0.681   C10.41,6.421,10.1,4.857,10.021,3.256C13.27,4.038,16.326,5.395,19.072,7.24z M16.147,15.925c-1.937-1.695-3.452-3.77-4.499-6.059   l9.82-0.818c0.232,0.195,0.461,0.392,0.687,0.595c-2.152,1.711-4.058,3.96-5.619,6.623L16.147,15.925z M46.93,48.959l-2.849,6.647   c-0.133,0.309-0.101,0.664,0.084,0.944C44.35,56.831,44.664,57,45,57h4c2.415,0,4.435,1.721,4.899,4h-3.068   c-3.446,0-6.833-0.889-9.831-2.575V54c0-3.86-4.038-7-9-7s-9,3.14-9,7v4.425C20.001,60.111,16.615,61,13.169,61h-3.068   c0.464-2.279,2.485-4,4.899-4h4c0.336,0,0.65-0.169,0.835-0.45c0.185-0.28,0.217-0.635,0.084-0.944l-2.849-6.647   C15.033,44.205,14,39.172,14,34c0-14.336,8.075-26,18-26s18,11.664,18,26C50,39.172,48.967,44.205,46.93,48.959z M47.853,15.925   l-0.389,0.34c-1.561-2.663-3.467-4.911-5.619-6.623c0.226-0.203,0.455-0.4,0.687-0.595l9.82,0.818   C51.305,12.154,49.79,14.229,47.853,15.925z"/>
	<path d="M32,30c4.962,0,9-4.038,9-9s-4.038-9-9-9s-9,4.038-9,9S27.038,30,32,30z M32,14c2.785,0,5.189,1.639,6.315,4h-12.63   C26.811,15.639,29.215,14,32,14z M35,21c0,1.654-1.346,3-3,3s-3-1.346-3-3c0-0.345,0.08-0.678,0.194-1h5.612   C34.92,20.322,35,20.655,35,21z M25.08,20h2.032C27.045,20.328,27,20.662,27,21c0,2.757,2.243,5,5,5s5-2.243,5-5   c0-0.338-0.045-0.672-0.112-1h2.032c0.047,0.328,0.08,0.66,0.08,1c0,3.86-3.14,7-7,7s-7-3.14-7-7C25,20.66,25.033,20.328,25.08,20z   "/>
	<path d="M17,36h2.062c0.297,3.076,1.94,5.87,4.544,7.605l1.84,1.227C25.613,44.944,25.806,45,26,45   c0.162,0,0.324-0.039,0.472-0.118C26.797,44.708,27,44.369,27,44v-8h10v8c0,0.369,0.203,0.708,0.528,0.882   C37.676,44.961,37.838,45,38,45c0.194,0,0.387-0.057,0.555-0.168l1.84-1.227c2.603-1.736,4.246-4.529,4.544-7.605H47v-2H17V36z    M25,42.131l-0.285-0.19c-2.046-1.364-3.364-3.536-3.653-5.941H25V42.131z M39.285,41.941L39,42.131V36h3.938   C42.649,38.405,41.331,40.578,39.285,41.941z"/>
</g>
</svg>
